<svg width="131" height="23" viewBox="0 0 131 23" fill="none" xmlns="http://www.w3.org/2000/svg">
<g clip-path="url(#clip0_1579_519)">
<path d="M20.6308 8.41927C20.5731 8.24946 20.467 8.10025 20.3255 7.99006C20.184 7.87987 20.0133 7.81353 19.8346 7.79922L14.6054 7.38371L12.3426 2.3747C12.2706 2.21337 12.1533 2.07634 12.0051 1.98016C11.8569 1.88397 11.684 1.83274 11.5073 1.83264C11.3306 1.83254 11.1577 1.88359 11.0094 1.97961C10.861 2.07563 10.7437 2.21253 10.6714 2.37378L8.4086 7.38371L3.17945 7.79922C3.00376 7.81314 2.8358 7.87738 2.69566 7.98425C2.55552 8.09113 2.44914 8.23612 2.38925 8.40187C2.32935 8.56762 2.31848 8.74712 2.35793 8.91889C2.39737 9.09066 2.48547 9.24743 2.61168 9.37044L6.47599 13.1375L5.10931 19.0555C5.06782 19.2347 5.08112 19.4221 5.14749 19.5936C5.21386 19.7651 5.33024 19.9127 5.48153 20.0172C5.63282 20.1217 5.81202 20.1783 5.9959 20.1797C6.17977 20.1811 6.35982 20.1272 6.51268 20.025L11.507 16.6955L16.5014 20.025C16.6576 20.1288 16.8419 20.1822 17.0294 20.1781C17.2168 20.1739 17.3986 20.1125 17.5501 20.002C17.7017 19.8916 17.8157 19.7373 17.877 19.5601C17.9383 19.3828 17.9438 19.1911 17.8928 19.0106L16.2152 13.1403L20.3758 9.39612C20.6482 9.15031 20.7482 8.7669 20.6308 8.41927Z" fill="#F3CD03"/>
<path d="M47.6457 8.41927C47.5881 8.24946 47.4819 8.10025 47.3404 7.99006C47.199 7.87987 47.0283 7.81353 46.8495 7.79922L41.6204 7.38371L39.3576 2.3747C39.2855 2.21337 39.1683 2.07634 39.0201 1.98016C38.8719 1.88397 38.699 1.83274 38.5223 1.83264C38.3456 1.83254 38.1726 1.88359 38.0243 1.97961C37.876 2.07563 37.7586 2.21253 37.6864 2.37378L35.4236 7.38371L30.1944 7.79922C30.0187 7.81314 29.8508 7.87738 29.7106 7.98425C29.5705 8.09113 29.4641 8.23612 29.4042 8.40187C29.3443 8.56762 29.3334 8.74712 29.3729 8.91889C29.4123 9.09066 29.5004 9.24743 29.6266 9.37044L33.4909 13.1375L32.1243 19.0555C32.0828 19.2347 32.0961 19.4221 32.1624 19.5936C32.2288 19.7651 32.3452 19.9127 32.4965 20.0172C32.6478 20.1217 32.827 20.1783 33.0109 20.1797C33.1947 20.1811 33.3748 20.1272 33.5276 20.025L38.522 16.6955L43.5163 20.025C43.6726 20.1288 43.8568 20.1822 44.0443 20.1781C44.2318 20.1739 44.4135 20.1125 44.5651 20.002C44.7166 19.8916 44.8307 19.7373 44.892 19.5601C44.9532 19.3828 44.9587 19.1911 44.9078 19.0106L43.2301 13.1403L47.3907 9.39612C47.6631 9.15031 47.7631 8.7669 47.6457 8.41927Z" fill="#F3CD03"/>
<path d="M74.6567 8.41927C74.599 8.24946 74.4929 8.10025 74.3514 7.99006C74.2099 7.87987 74.0393 7.81353 73.8605 7.79922L68.6314 7.38371L66.3686 2.3747C66.2965 2.21337 66.1793 2.07634 66.0311 1.98016C65.8828 1.88397 65.71 1.83274 65.5333 1.83264C65.3566 1.83254 65.1836 1.88359 65.0353 1.97961C64.887 2.07563 64.7696 2.21253 64.6974 2.37378L62.4345 7.38371L57.2054 7.79922C57.0297 7.81314 56.8617 7.87738 56.7216 7.98425C56.5815 8.09113 56.4751 8.23612 56.4152 8.40187C56.3553 8.56762 56.3444 8.74712 56.3839 8.91889C56.4233 9.09066 56.5114 9.24743 56.6376 9.37044L60.5019 13.1375L59.1353 19.0555C59.0938 19.2347 59.1071 19.4221 59.1734 19.5936C59.2398 19.7651 59.3562 19.9127 59.5075 20.0172C59.6588 20.1217 59.838 20.1783 60.0218 20.1797C60.2057 20.1811 60.3858 20.1272 60.5386 20.025L65.533 16.6955L70.5273 20.025C70.6835 20.1288 70.8678 20.1822 71.0553 20.1781C71.2428 20.1739 71.4245 20.1125 71.5761 20.002C71.7276 19.8916 71.8417 19.7373 71.9029 19.5601C71.9642 19.3828 71.9697 19.1911 71.9187 19.0106L70.2411 13.1403L74.4017 9.39612C74.6741 9.15031 74.7741 8.7669 74.6567 8.41927Z" fill="#F3CD03"/>
<path d="M101.671 8.41927C101.613 8.24946 101.507 8.10025 101.365 7.99006C101.224 7.87987 101.053 7.81353 100.875 7.79922L95.6454 7.38371L93.3826 2.3747C93.3105 2.21337 93.1933 2.07634 93.0451 1.98016C92.8969 1.88397 92.724 1.83274 92.5473 1.83264C92.3706 1.83254 92.1977 1.88359 92.0493 1.97961C91.901 2.07563 91.7836 2.21253 91.7114 2.37378L89.4486 7.38371L84.2194 7.79922C84.0437 7.81314 83.8758 7.87738 83.7356 7.98425C83.5955 8.09113 83.4891 8.23612 83.4292 8.40187C83.3693 8.56762 83.3585 8.74712 83.3979 8.91889C83.4374 9.09066 83.5255 9.24743 83.6517 9.37044L87.516 13.1375L86.1493 19.0555C86.1078 19.2347 86.1211 19.4221 86.1875 19.5936C86.2538 19.7651 86.3702 19.9127 86.5215 20.0172C86.6728 20.1217 86.852 20.1783 87.0359 20.1797C87.2197 20.1811 87.3998 20.1272 87.5527 20.025L92.547 16.6955L97.5413 20.025C97.6976 20.1288 97.8818 20.1822 98.0693 20.1781C98.2568 20.1739 98.4386 20.1125 98.5901 20.002C98.7416 19.8916 98.8557 19.7373 98.917 19.5601C98.9782 19.3828 98.9838 19.1911 98.9328 19.0106L97.2552 13.1403L101.416 9.39612C101.688 9.15031 101.788 8.7669 101.671 8.41927Z" fill="#F3CD03"/>
<path d="M114.532 13.1377L113.165 19.0557C113.123 19.2349 113.135 19.4227 113.202 19.5945C113.268 19.7664 113.384 19.9143 113.535 20.0191C113.687 20.1238 113.866 20.1804 114.051 20.1814C114.235 20.1825 114.415 20.1281 114.568 20.0252L119.562 16.6956L124.556 20.0252C124.712 20.1289 124.897 20.1823 125.084 20.1782C125.272 20.1741 125.453 20.1127 125.605 20.0022C125.757 19.8917 125.871 19.7375 125.932 19.5602C125.993 19.383 125.999 19.1912 125.948 19.0107L124.27 13.1404L128.431 9.39628C128.564 9.27629 128.659 9.11988 128.704 8.94638C128.75 8.77289 128.743 8.58992 128.686 8.4201C128.628 8.25029 128.522 8.10107 128.38 7.99091C128.239 7.88075 128.068 7.81448 127.889 7.80029L122.66 7.38386L120.397 2.37485C120.325 2.21356 120.208 2.0766 120.06 1.98049C119.912 1.88439 119.739 1.83325 119.562 1.83325C119.385 1.83325 119.212 1.88439 119.064 1.98049C118.916 2.0766 118.798 2.21356 118.726 2.37485L116.463 7.38386L111.234 7.79937C111.059 7.81329 110.891 7.87753 110.751 7.98441C110.61 8.09128 110.504 8.23627 110.444 8.40202C110.384 8.56777 110.373 8.74727 110.413 8.91904C110.452 9.09081 110.54 9.24758 110.667 9.37059L114.532 13.1377ZM117.149 9.16972C117.312 9.15682 117.47 9.10012 117.604 9.00555C117.738 8.91098 117.844 8.78203 117.912 8.63222L119.562 4.98071L121.212 8.63222C121.279 8.78203 121.386 8.91098 121.52 9.00555C121.654 9.10012 121.811 9.15682 121.975 9.16972L125.618 9.45865L122.618 12.159C122.358 12.3938 122.254 12.7552 122.349 13.0927L123.499 17.1148L120.072 14.83C119.921 14.729 119.744 14.6751 119.563 14.6751C119.382 14.6751 119.205 14.729 119.055 14.83L115.474 17.2175L116.437 13.0478C116.472 12.8944 116.467 12.7346 116.423 12.5836C116.379 12.4326 116.296 12.2955 116.184 12.1856L113.397 9.46874L117.149 9.16972Z" fill="#F3CD03"/>
</g>
<defs>
<clipPath id="clip0_1579_519">
<rect width="130.068" height="22.0136" fill="white" transform="translate(0.5)"/>
</clipPath>
</defs>
</svg>
